<svg xmlns="http://www.w3.org/2000/svg" xmlns:xlink="http://www.w3.org/1999/xlink" width="160" height="160" viewBox="0 0 160 160"><defs><linearGradient id="a" x1="0.5" x2="0.5" y2="1" gradientUnits="objectBoundingBox"><stop offset="0" stop-color="#daaf69"/><stop offset="1" stop-color="#6d5835"/></linearGradient><linearGradient id="b" x1="0.862" y1="0.814" x2="0.229" y2="0.107" xlink:href="#a"/><linearGradient id="c" x1="0.854" y1="-0.182" x2="0.151" y2="0.833" gradientUnits="objectBoundingBox"><stop offset="0" stop-color="#ffd187"/><stop offset="1" stop-color="#6d5835"/></linearGradient></defs><g transform="translate(-2339 -582)"><circle cx="80" cy="80" r="80" transform="translate(2339 582)" fill="url(#a)"/><path d="M80,4A75.626,75.626,0,0,0,37.51,16.977,76.233,76.233,0,0,0,9.971,50.419a75.895,75.895,0,0,0,7.006,72.071,76.233,76.233,0,0,0,33.441,27.54,75.895,75.895,0,0,0,72.071-7.006,76.233,76.233,0,0,0,27.54-33.441,75.895,75.895,0,0,0-7.006-72.071,76.233,76.233,0,0,0-33.441-27.54A75.521,75.521,0,0,0,80,4m0-4A80,80,0,1,1,0,80,80,80,0,0,1,80,0Z" transform="translate(2339 582)" fill="#c69f5f"/><circle cx="68" cy="68" r="68" transform="translate(2351 594)" fill="url(#b)"/><path d="M68,2A65.682,65.682,0,0,0,31.1,13.271,66.2,66.2,0,0,0,7.186,42.31,65.91,65.91,0,0,0,13.271,104.9a66.2,66.2,0,0,0,29.04,23.914,65.91,65.91,0,0,0,62.589-6.085,66.2,66.2,0,0,0,23.914-29.04A65.91,65.91,0,0,0,122.729,31.1,66.2,66.2,0,0,0,93.69,7.186,65.585,65.585,0,0,0,68,2m0-2A68,68,0,1,1,0,68,68,68,0,0,1,68,0Z" transform="translate(2351 594)" fill="#a2814c"/><path d="M58.878,14.547a82.721,82.721,0,0,0-8.849,17.917l-.109.492-.328-.055Q47.461,20.938,36.7,17.825V41.86l3.278.874V21.375a17.5,17.5,0,0,1,4.1,2.458,17.409,17.409,0,0,1,2.841,3.878h-.492l-.382-.382A24.088,24.088,0,0,0,41.4,23.724V43.171l.874.273Q51.394,46.066,55,49.071a18.523,18.523,0,0,1,6.719,14.858,19.888,19.888,0,0,1-6.746,15.186,23.463,23.463,0,0,1-16.524,6.227q-.492,0-1.748-.109V95.338H32.275v-5.9l-.874-.164q-4.315-.874-6.61-1.475l-5.08-1.256a30.084,30.084,0,0,0-6.992-.819,14.733,14.733,0,0,0-5.79,1.2l-.71-1.693a16.468,16.468,0,0,1,5.9-1.147q3.769,0,13.056,2.294,3.332.765,6.391,1.366l.71.164V84.8a116.767,116.767,0,0,1-13.383-2.9,27.6,27.6,0,0,0-6.883-1.093A14.9,14.9,0,0,0,4.8,82.938l-.437-.874.492-.765a96.157,96.157,0,0,0,9.013-18.463h.874a20.916,20.916,0,0,0,5.626,12.291,19.156,19.156,0,0,0,11.908,5.463V57.319l-1.147-.328Q20.312,54.205,17.39,52.648a9.06,9.06,0,0,1-4.233-5.162l2.021,1.093q1.639,3.059,9.723,5.08L31.456,55.3l.819.219v-2.95l-1.093-.219Q19.93,50,15.942,46.995a16.352,16.352,0,0,1-4.752-6.2,19.147,19.147,0,0,1-1.8-8.112q0-9.177,6.173-14.585T32.275,12.69V5.315H36.7v7.7q1.857.328,3.278.71v-6.5L41.4,8.265v5.463q1.256.273,6.828,1.693a19.9,19.9,0,0,0,4.807.71,8.608,8.608,0,0,0,5.408-1.967ZM41.289,80.863a15.584,15.584,0,0,0,8.385-4.315,10.975,10.975,0,0,0,2.977-7.811,12.742,12.742,0,0,0-3.387-8.576,15.453,15.453,0,0,0-4.425-3.66A40.524,40.524,0,0,0,37.3,53.878l-.71-.218V81.081h.6q.164,0,2.13-.219h.6V57.647q8.685,1.912,10.707,7.374h-.382a16.169,16.169,0,0,0-8.959-5.408ZM32.221,40.822V21.539a9.43,9.43,0,0,0-6.091,2.595A7.807,7.807,0,0,0,23.863,29.9q0,4.862,5.845,8.522V38.8q-7.429-3.168-7.429-9.122A9.121,9.121,0,0,1,25.2,22.9a9.712,9.712,0,0,1,7.019-2.841v-2.95a13.991,13.991,0,0,0-9.4,3.359,10.26,10.26,0,0,0-3.933,8.057q0,8.795,12.619,12.127ZM62.374,16.787l-.492.874q-3.605,6.227-5.954,11.253L53.8,33.557l-.273.656-1.311-.492q.437-.929.492-1.038l2.349-5.135a94.2,94.2,0,0,1,5.954-11.362ZM58.878,49.4q7.484,5.463,7.484,15.4a23.339,23.339,0,0,1-6.473,16.06,25.215,25.215,0,0,1-15.7,8.412l-2.4.328-.492.109v9.833H35.28l-1.2-1.475h5.845V88.182a25.693,25.693,0,0,0,9.833-2.24,24.613,24.613,0,0,0,10.925-8.658,21.6,21.6,0,0,0,4.1-12.7,20.614,20.614,0,0,0-5.9-14.858ZM20.094,65.021a19.2,19.2,0,0,0,3.25,8.248,24.667,24.667,0,0,0,7.511,5.9v.273a15.426,15.426,0,0,1-8.221-4.971,16.845,16.845,0,0,1-4.07-9.068Z" transform="translate(2383.639 609.57)" fill="url(#c)"/><path d="M32.15,5.19h4.675v7.722c1.127.2,2.144.42,3.028.652V6.981L41.523,8.2v5.426c.909.2,3.172.765,6.734,1.673a19.876,19.876,0,0,0,4.776.706,8.525,8.525,0,0,0,5.331-1.94L58.446,14l.6.521-.057.09A83,83,0,0,0,50.149,32.5l-.134.6-.532-.089-.015-.087C48.075,25.1,43.821,20.072,36.825,17.992V41.764l3.028.807V21.178l.178.084a17.7,17.7,0,0,1,4.128,2.479,17.605,17.605,0,0,1,2.864,3.908l.111.188h-.762l-.419-.419a25.628,25.628,0,0,0-4.43-3.485V43.079l.786.246c6.067,1.744,10.365,3.645,12.77,5.65a18.77,18.77,0,0,1,5.073,6.6,20.143,20.143,0,0,1,1.691,8.355,20.37,20.37,0,0,1-1.7,8.327,21.216,21.216,0,0,1-5.089,6.951,23.125,23.125,0,0,1-7.545,4.7,25.622,25.622,0,0,1-9.064,1.565c-.312,0-.857-.033-1.623-.1V95.463H32.15V89.543l-.772-.145c-2.868-.581-5.094-1.078-6.618-1.477l-5.079-1.256a30.1,30.1,0,0,0-6.962-.816,14.676,14.676,0,0,0-5.742,1.192l-.115.049-.809-1.928.121-.046a16.668,16.668,0,0,1,5.944-1.155c2.511,0,6.914.773,13.085,2.3,2.208.507,4.357.966,6.385,1.364l.561.129V84.906a119.535,119.535,0,0,1-13.29-2.885,27.619,27.619,0,0,0-6.852-1.089,14.848,14.848,0,0,0-7.15,2.115l-.114.064-.527-1.055.53-.825a96.481,96.481,0,0,0,9-18.436l.029-.085H14.85l.015.108a20.887,20.887,0,0,0,5.591,12.22,19.074,19.074,0,0,0,11.694,5.41V57.413l-1.056-.3c-7.183-1.85-11.815-3.315-13.763-4.353a9.221,9.221,0,0,1-4.292-5.23l-.112-.309,2.343,1.267.018.033c1.07,2,4.315,3.686,9.643,5.018l6.555,1.639.664.177V52.669l-.992-.2c-7.486-1.563-12.63-3.371-15.291-5.376a16.552,16.552,0,0,1-4.791-6.247,19.359,19.359,0,0,1-1.814-8.164A21.165,21.165,0,0,1,10.815,24.4,17.562,17.562,0,0,1,15.478,18a20.634,20.634,0,0,1,7.309-4.081,30.808,30.808,0,0,1,9.364-1.358Zm4.425.25H32.4v7.374h-.125c-6.964,0-12.561,1.809-16.633,5.377s-6.13,8.439-6.13,14.491a19.111,19.111,0,0,0,1.791,8.06A16.3,16.3,0,0,0,16.019,46.9c2.63,1.981,7.741,3.775,15.189,5.33l1.192.238v3.215l-.977-.26L24.871,53.78a30.219,30.219,0,0,1-6.5-2.291,7.628,7.628,0,0,1-3.285-2.818l-1.693-.915a8.865,8.865,0,0,0,4.057,4.782c1.931,1.028,6.543,2.486,13.711,4.332l1.241.355v23.5l-.139-.016a21.8,21.8,0,0,1-6.675-1.786,17.967,17.967,0,0,1-5.308-3.713,18.85,18.85,0,0,1-3.726-5.43,24.526,24.526,0,0,1-1.921-6.824h-.675a97.01,97.01,0,0,1-9,18.4l-.455.708.347.694a15,15,0,0,1,7.157-2.083,27.857,27.857,0,0,1,6.915,1.1A117.252,117.252,0,0,0,32.29,84.672l.11.013v3.382l-.863-.2c-2.027-.4-4.178-.858-6.391-1.366-6.154-1.52-10.537-2.291-13.028-2.291A16.364,16.364,0,0,0,6.384,85.3L7,86.762A14.9,14.9,0,0,1,12.72,85.6a30.349,30.349,0,0,1,7.021.823l5.081,1.257c1.522.4,3.743.894,6.6,1.474l.974.183v5.878h4.175V85.1l.136.012c.83.072,1.414.109,1.737.109a23.444,23.444,0,0,0,16.439-6.194,19.853,19.853,0,0,0,6.706-15.094,18.481,18.481,0,0,0-6.675-14.763c-2.378-1.982-6.645-3.867-12.682-5.6l-.964-.3V23.519l.182.094a24.315,24.315,0,0,1,4.671,3.625l.349.349H46.7a16.809,16.809,0,0,0-2.705-3.661A16.958,16.958,0,0,0,40.1,21.573V42.9l-3.528-.941v-24.3l.16.046A17.529,17.529,0,0,1,45.4,23.069a20.263,20.263,0,0,1,4.3,9.723l.124.021.087-.388a83.065,83.065,0,0,1,8.805-17.854l-.279-.244a8.741,8.741,0,0,1-5.4,1.93,20.119,20.119,0,0,1-4.838-.714c-3.7-.942-5.991-1.511-6.824-1.692l-.1-.021v-5.5L40.1,7.473v6.417l-.157-.042c-.939-.253-2.038-.491-3.267-.708l-.1-.018ZM60.96,16.028l1.59.7-.559.994c-2.391,4.13-4.393,7.913-5.95,11.245l-2.13,4.642-.318.763-1.551-.582.058-.123c.29-.617.456-.967.493-1.041L54.941,27.5A94.762,94.762,0,0,1,60.9,16.119Zm1.237.818-1.141-.5A94.979,94.979,0,0,0,55.168,27.6l-2.349,5.135c-.035.071-.181.378-.434.916l1.071.4.227-.544,2.132-4.647c1.561-3.339,3.566-7.128,5.96-11.263Zm-29.977.144h.125v3.2h-.125a9.633,9.633,0,0,0-6.932,2.805A9.039,9.039,0,0,0,22.4,29.678c0,3.85,2.415,6.854,7.179,8.932v-.123a14.708,14.708,0,0,1-4.362-3.959A8.075,8.075,0,0,1,23.738,29.9a7.962,7.962,0,0,1,2.3-5.851,9.593,9.593,0,0,1,6.168-2.631l.136-.012V40.979l-.863-.2c-4.211-1.112-7.414-2.7-9.522-4.729a10.068,10.068,0,0,1-3.193-7.519,10.423,10.423,0,0,1,3.977-8.152A14.174,14.174,0,0,1,32.221,16.99ZM32.1,19.94v-2.7a13.907,13.907,0,0,0-9.189,3.329,10.184,10.184,0,0,0-3.889,7.962c0,5.772,4.214,9.811,12.525,12.006l.553.128V21.676a9.3,9.3,0,0,0-5.877,2.546,7.72,7.72,0,0,0-2.23,5.675c0,3.18,1.947,6.011,5.786,8.416l.059.037v.641l-.174-.074a14.393,14.393,0,0,1-5.62-3.9,8.245,8.245,0,0,1-1.885-5.337,9.281,9.281,0,0,1,2.96-6.863A9.864,9.864,0,0,1,32.1,19.94ZM58.753,49.152l.2.145A17.866,17.866,0,0,1,64.6,55.926,20.159,20.159,0,0,1,66.487,64.8a22.663,22.663,0,0,1-1.627,8.514,25.824,25.824,0,0,1-4.878,7.63,26.815,26.815,0,0,1-7.2,5.707A25.341,25.341,0,0,1,44.2,89.4l-2.4.327-.389.086v9.857H35.22l-1.405-1.725H39.8V88.057h.125a25.69,25.69,0,0,0,9.784-2.23,24.6,24.6,0,0,0,10.871-8.615,21.57,21.57,0,0,0,4.074-12.628,20.583,20.583,0,0,0-5.865-14.771l-.035-.036ZM41.164,99.419V89.612l.6-.133,2.4-.328A25.2,25.2,0,0,0,59.8,80.779,23.32,23.32,0,0,0,66.237,64.8c0-6.466-2.434-11.564-7.234-15.157v.03a20.943,20.943,0,0,1,4.416,6.778,22.279,22.279,0,0,1-2.636,20.9,24.847,24.847,0,0,1-10.979,8.7,26.076,26.076,0,0,1-9.756,2.249v9.888H34.341l1,1.225Zm-4.7-45.93.872.268a40.807,40.807,0,0,1,7.56,2.631,15.648,15.648,0,0,1,4.461,3.689,12.919,12.919,0,0,1,3.417,8.658,11.144,11.144,0,0,1-3.011,7.9,15.776,15.776,0,0,1-8.45,4.352l-.151.032V59.454l.154.037a16.374,16.374,0,0,1,8.988,5.4h.142c-1.362-3.459-4.859-5.845-10.4-7.094V80.988h-.719c-1.763.2-2.064.219-2.137.219h-.726Zm4.948,27.218a15.444,15.444,0,0,0,8.169-4.246,10.9,10.9,0,0,0,2.943-7.726,12.676,12.676,0,0,0-3.356-8.494,15.4,15.4,0,0,0-4.389-3.631A40.616,40.616,0,0,0,37.268,54l-.552-.17V80.956h.476c.072,0,.5-.038,2.117-.218h.49V57.491l.152.033a20.075,20.075,0,0,1,7.063,2.819,9.7,9.7,0,0,1,3.734,4.634l.062.168h-.621l-.038-.045a16.073,16.073,0,0,0-8.737-5.328ZM20.193,64.868l.024.131a19.172,19.172,0,0,0,3.226,8.2,24.666,24.666,0,0,0,7.473,5.867l.064.036v.5l-.154-.036a15.618,15.618,0,0,1-8.286-5.01,17.044,17.044,0,0,1-4.1-9.134l-.015-.111ZM30.73,79.242a24.8,24.8,0,0,1-7.485-5.9A19.277,19.277,0,0,1,20,65.175L18.7,65.5a16.78,16.78,0,0,0,4.024,8.891,15.37,15.37,0,0,0,8,4.895Z" transform="translate(2383.639 609.57)" fill="#6d5835"/></g></svg>