<svg xmlns="http://www.w3.org/2000/svg" xmlns:xlink="http://www.w3.org/1999/xlink" width="192.356" height="199" viewBox="0 0 192.356 199"><defs><linearGradient id="a" x1="0.312" y1="0.238" x2="0.765" y2="0.973" gradientUnits="objectBoundingBox"><stop offset="0" stop-color="#daaf69"/><stop offset="1" stop-color="#6d5835"/></linearGradient></defs><g transform="translate(-278 -231.989)"><path d="M96.178,0l28.853,62.814,67.325,8.656-49.492,47.477,12.756,68.163L96.178,153.639,36.737,187.11l12.756-68.163L0,71.47l67.325-8.656Z" transform="translate(278 232.008)" fill="url(#a)"/><path d="M24.466,104.334,40.547,37.811,0,0Z" transform="translate(374.233 330.178) rotate(47)" fill="#bc975b"/><path d="M24.414,0,40.507,66.213,0,103.987Z" transform="translate(450.277 401.204) rotate(133)" fill="#bc975b"/><path d="M35.011,0,51.494,48.261,0,93.345Z" transform="matrix(0.087, 0.996, -0.996, 0.087, 371.154, 295.413)" fill="#bc975b"/><path d="M19.467,5.547,48.279,68.439,19.491,103.848Z" transform="translate(354.742 226.442)" fill="#bc975b"/><path d="M3.2,55.15l96.1-26.6L49.9,75.832Z" transform="translate(370.955 275.141)" fill="#bc975b"/></g></svg>